<?xml version="1.0" encoding="utf-8"?>
<!-- Generator: Adobe Illustrator 24.1.1, SVG Export Plug-In . SVG Version: 6.00 Build 0)  -->
<svg version="1.1" id="Layer_1" xmlns="http://www.w3.org/2000/svg" xmlns:xlink="http://www.w3.org/1999/xlink" x="0px" y="0px"
	 viewBox="0 0 212 317.9" style="enable-background:new 0 0 212 317.9;" xml:space="preserve">
<style type="text/css">
	.st0{fill:#FFFFFF;}
</style>
<path class="st0" d="M171.2,35.1c-19.4-18.5-44.6-28.1-71-27c-26.5,1-51,12.7-69,32.8C14.3,59.7,5,84.2,5,109.7v103.9
	c0,27.1,10.2,52.7,28.9,72c18.7,19.2,43.6,29.9,70,29.9c54.5-0.1,98.9-45.8,99-101.9V109.7C202.9,81.5,191.3,54.3,171.2,35.1z
	 M44.4,273.5c-16.1-16.6-25-38.9-25-62.5v-98.8c0.1-22.2,8.1-43.5,22.7-59.8C57.6,35.1,78.7,25,101.5,24.1c1.1-0.1,2.2-0.1,3.3-0.1
	c21.5,0,41.8,8.3,57.6,23.4c17.5,16.6,27.5,40.2,27.5,64.8V211c0,48.7-38.3,88.3-85.3,88.3C81.9,299.2,60.6,290.1,44.4,273.5z"/>
</svg>
