<svg id="Layer_1" data-name="Layer 1" xmlns="http://www.w3.org/2000/svg" viewBox="0 0 500 500"><defs><style>.cls-1{opacity:0.77;}.cls-2{fill:#fff;}.cls-3{fill:#090e3b;}.cls-4{fill:#888b8c;}</style></defs><title>nul_logo</title><g id="Group_38" data-name="Group 38" class="cls-1"><g id="Group_7" data-name="Group 7"><path id="Path_279" data-name="Path 279" class="cls-2" d="M350.42,233.47V479.6h133.5v-44h-87.4V233.47Z"/><path id="Path_280" data-name="Path 280" class="cls-2" d="M245.69,8.76a78.47,78.47,0,0,0-34.36,6.86C185.54,28,179.15,55.07,179.15,78.77v49.72H228V73.25A18.25,18.25,0,0,1,244,52.93a16.63,16.63,0,0,1,2.44-.13,17.45,17.45,0,0,1,12.73,5,21.27,21.27,0,0,1,5.66,15.47V128.5h48.88V78.78C313.63,34.27,288.87,8.76,245.69,8.76Z"/><g id="Group_6" data-name="Group 6"><path id="Path_281" data-name="Path 281" class="cls-2" d="M179.13,233.47V415.8c0,30.3,10.53,50.92,30.73,61.19a78.69,78.69,0,0,0,35.82,7.47c43.82,0,67.95-24.37,67.95-68.63V233.47H264.76V421.33a21.25,21.25,0,0,1-5.66,15.47,17.5,17.5,0,0,1-12.73,5,18.28,18.28,0,0,1-18.52-18,20,20,0,0,1,.13-2.45V233.47Z"/></g><path id="Path_282" data-name="Path 282" class="cls-2" d="M105.24,233.47V390.41h-2.36L57.37,238h-44V484.13H50.51V327.22h2.36L98.38,479.63h44V233.47Z"/></g><g id="Group_12" data-name="Group 12"><g id="Group_8" data-name="Group 8"><rect id="Rectangle_7" data-name="Rectangle 7" class="cls-3" x="401.09" y="233.47" width="9.14" height="197.52"/><path id="Path_283" data-name="Path 283" class="cls-3" d="M484,431h0v53.17h9.15V431Z"/></g><g id="Group_9" data-name="Group 9"><path id="Path_284" data-name="Path 284" class="cls-3" d="M239.22,59.19A11.89,11.89,0,0,0,234.58,64a19.71,19.71,0,0,0-2,9.27V128.5h9.14V73.25A14.21,14.21,0,0,1,251,58.08a15.81,15.81,0,0,0-4.58-.71A14.14,14.14,0,0,0,239.22,59.19Z"/><path id="Path_285" data-name="Path 285" class="cls-3" d="M254.85,4.19c-1.57,0-3,.12-4.56.18,43.39,1.85,67.93,29.71,67.93,74.41V128.5h9.14V78.78C327.36,32.5,301.12,4.19,254.85,4.19Z"/></g><g id="Group_10" data-name="Group 10"><path id="Path_286" data-name="Path 286" class="cls-3" d="M246.39,437.21a16.21,16.21,0,0,0,4.1-.56l.48-.15a14.21,14.21,0,0,1-9.24-15.17V233.47h-9.14V421.33C232.58,431,237.41,437.2,246.39,437.21Z"/><path id="Path_287" data-name="Path 287" class="cls-3" d="M318.22,233.47h0V415.8A75.22,75.22,0,0,1,300.09,469a69.85,69.85,0,0,1-49.91,19.85c1.55.06,3.07.17,4.68.17,48.35,0,72.52-29,72.52-73.21V233.47Z"/></g><g id="Group_11" data-name="Group 11"><path id="Path_288" data-name="Path 288" class="cls-3" d="M100.67,364.44v-28L69.93,233.47H60.79l39.11,131Z"/><path id="Path_289" data-name="Path 289" class="cls-3" d="M55.08,353.21v131h9.15V381.24l-8.38-28Z"/><rect id="Rectangle_8" data-name="Rectangle 8" class="cls-3" x="146.94" y="233.47" width="9.14" height="250.7"/></g></g><g id="Group_17" data-name="Group 17"><g id="Group_13" data-name="Group 13"><path id="Path_290" data-name="Path 290" class="cls-4" d="M401.09,431V233.47h-4.58v202.1H484V431Z"/><path id="Path_291" data-name="Path 291" class="cls-4" d="M350.4,479.6V233.47h-4.57v250.7H484V479.6Z"/></g><g id="Group_14" data-name="Group 14"><path id="Path_292" data-name="Path 292" class="cls-4" d="M250.29,4.37c-1.53-.07-3-.18-4.58-.18A69.55,69.55,0,0,0,193,23.38a78.06,78.06,0,0,0-18.48,55.45v49.71h4.54V78.78c0-23.7,6.41-50.77,32.18-63.15a78.52,78.52,0,0,1,34.37-6.86c43.17,0,67.95,25.51,67.95,70v49.72h4.57V78.78C318.15,34.07,293.68,6.22,250.29,4.37Z"/><path id="Path_293" data-name="Path 293" class="cls-4" d="M246.38,52.8a18.27,18.27,0,0,0-18.52,18,20,20,0,0,0,.13,2.44V128.5h4.58V73.25a19.71,19.71,0,0,1,2-9.27,11.76,11.76,0,0,1,4.64-4.79,14,14,0,0,1,7.17-1.82,15.81,15.81,0,0,1,4.58.71,14.21,14.21,0,0,1,9.23,15.17V128.5h4.57V73.25a21.31,21.31,0,0,0-5.66-15.47A17.48,17.48,0,0,0,246.38,52.8Z"/></g><g id="Group_15" data-name="Group 15"><path id="Path_294" data-name="Path 294" class="cls-4" d="M318.15,233.47h-4.57V415.8c0,44.25-24.13,68.63-67.95,68.63A78.78,78.78,0,0,1,209.79,477c-20.2-10.23-30.72-30.85-30.72-61.18V233.47H174.5V415.8c0,45.61,22.78,73.2,71.13,73.2,1.52,0,3-.11,4.45-.17h0A69.85,69.85,0,0,0,300,469a75.28,75.28,0,0,0,18.13-53.18V233.47Z"/><path id="Path_295" data-name="Path 295" class="cls-4" d="M246.38,441.79a17.5,17.5,0,0,0,12.73-5,21.25,21.25,0,0,0,5.66-15.47V233.47H260.2V421.33A14.21,14.21,0,0,1,251,436.5l-.48.15a16.21,16.21,0,0,1-4.1.56h0c-9,0-13.81-6.21-13.81-15.88V233.47H228V421.33A18.27,18.27,0,0,0,244,441.66,19.79,19.79,0,0,0,246.38,441.79Z"/></g><g id="Group_16" data-name="Group 16"><path id="Path_296" data-name="Path 296" class="cls-4" d="M102.87,390.41h2.36V233.47h-4.58v131h-.78l-39.12-131H8.8v250.7h4.57V238h44Z"/><path id="Path_297" data-name="Path 297" class="cls-4" d="M142.36,233.47V479.6h-44L52.86,327.19H50.5v157h4.57V353.22h.78L95,484.18h52V233.47Z"/></g></g><g id="Group_18" data-name="Group 18"><path id="Path_298" data-name="Path 298" class="cls-2" d="M92.82,158.25v55.56H80.69V158.25h-21V148.18h54.13v10.07Z"/><path id="Path_299" data-name="Path 299" class="cls-2" d="M147.38,204.19c8.36,0,14-5.75,14-16.36V148.18h12.14v39.74a26.18,26.18,0,0,1-52.29,2.64q-.06-1.32,0-2.64V148.18h12.14v39.65c0,10.61,5.75,16.36,14,16.36"/><path id="Path_300" data-name="Path 300" class="cls-2" d="M186.2,148.18h18.91c14.65,0,22.25,6.83,22.25,17.34a14.65,14.65,0,0,1-9.17,13.68,16.44,16.44,0,0,1,13.22,15.9c0,11.6-9,18.71-23.2,18.71h-22ZM204.37,176c6.83,0,11.12-3.06,11.12-8.81s-4.32-8.9-11.12-8.9h-6.3V176Zm3.14,27.81c6.92,0,11.61-3.6,11.61-9.43S214.43,185,207.51,185h-9.44v18.79Z"/><path id="Path_301" data-name="Path 301" class="cls-2" d="M305.68,181a33.86,33.86,0,1,1,0-.07V181m-54.94,0a21.43,21.43,0,1,0,21.4-22.65,21.74,21.74,0,0,0-21.41,22.08c0,.19,0,.38,0,.57"/><path id="Path_302" data-name="Path 302" class="cls-2" d="M328.36,213.82H316.23V148.18h18.51c14.46,0,24.82,7.46,24.82,20.33a18.33,18.33,0,0,1-12.86,18l20.4,27.34H353l-18.79-25.36h-5.84Zm-.23-35.07h6.38c7.47,0,12.5-3.68,12.5-10.24s-5-10.34-12.5-10.34h-6.38Z"/><path id="Path_303" data-name="Path 303" class="cls-2" d="M433,178.93c.08,1.11.08,2.34.08,3.5a30.66,30.66,0,0,1-28.8,32.43c-1,.06-1.95.07-2.92,0a33.9,33.9,0,0,1,0-67.79,31.16,31.16,0,0,1,27.69,16.19l-10.16,6.12a19.76,19.76,0,0,0-17.52-10.88A21.78,21.78,0,0,0,380.1,180.8V181a22.15,22.15,0,0,0,21.43,22.83h.06A18.38,18.38,0,0,0,420.5,189H402.26V179Z"/></g></g></svg>
