<svg id="Layer_1" data-name="Layer 1" xmlns="http://www.w3.org/2000/svg" viewBox="0 0 500 500"><defs><style>.cls-1{fill:#fff;fill-rule:evenodd;}</style></defs><title>snap_footer_logo</title><path id="Path_272" data-name="Path 272" class="cls-1" d="M251.72,403.22a7.3,7.3,0,0,1-2.62-.33h0a3,3,0,0,1-1.63.33c-19.32,0-31.77-8.85-43.88-17.36-8.18-5.89-16.05-11.46-25.22-13.1a92.8,92.8,0,0,0-13.42-1c-7.53,0-13.75,1.31-18.34,2a28.49,28.49,0,0,1-6.87,1c-1.64,0-3.93-.33-4.59-3.28-1-2.62-1.31-5.24-2-7.53-1.32-6.22-2.3-10.15-4.92-10.48-30.77-4.91-39.61-11.46-41.58-16a4.17,4.17,0,0,1-.33-2,3.51,3.51,0,0,1,3-3.6c47.15-7.53,68.11-55.67,69.08-58h0c3-5.89,3.61-11.13,1.65-15.06-3.27-7.86-13.76-11.13-20.63-13.43-1.64-.32-3.28-1-4.59-1.31-14.07-5.56-15.06-11.13-14.74-14.07,1-4.91,7.53-8.52,13.1-8.52a6.66,6.66,0,0,1,3.61,1,40.4,40.4,0,0,0,16.7,4.25c6.88,0,9.82-2.61,10.15-3.27,0-2.95-.33-6.55-.65-9.82-1.32-22.27-3-50.11,3.92-65.82,21.29-47.49,66.15-51.09,79.25-51.09h6.55c13.42,0,58.28,3.6,79.57,51.09,6.88,15.71,5.24,43.55,3.6,65.82v1c0,2.95-.33,6.22-.33,8.84.33.33,2.95,3,9.18,3.27h0c4.57,0,9.81-1.63,15.71-4.25a9.42,9.42,0,0,1,4.92-1,15.35,15.35,0,0,1,5.56,1h.32c4.59,1.63,7.54,4.91,7.86,8.51,0,3.28-2.62,8.19-14.73,13.1-1.31.33-2.95,1-4.58,1.31-7.22,2.29-17.69,5.57-21,13.43-1.64,3.93-1,9.17,2,15.06h0c.66,2.29,21.94,50.43,69.1,58a3.84,3.84,0,0,1,2.95,3.6,4.66,4.66,0,0,1-.66,2c-2,4.59-10.48,11.14-41.27,16.05-2.61.33-3.6,3.6-4.9,10.48-.66,2.29-1.32,4.91-2,7.53a4.22,4.22,0,0,1-4.26,3.27h-.33a31.19,31.19,0,0,1-6.87-1,96.06,96.06,0,0,0-18.67-2,88.36,88.36,0,0,0-13.1,1c-9.16,1.64-17,7.2-25.54,13.1-11.78,8.51-24.23,17.35-43.55,17.35Z"/></svg>
